# Blender v3.6.4 OBJ File: 'tree01.blend'
# www.blender.org
mtllib tree01.mtl
o Sphere
v 2.694417 16.761135 -3.514508
v 4.563664 14.140600 -6.087306
v 5.281898 9.632354 -7.075870
v 5.135350 5.755259 -6.874163
v 3.024480 4.025231 -3.968801
v 4.272530 16.761135 -1.342423
v 7.297035 14.140600 -2.325144
v 8.459163 9.632354 -2.702743
v 8.222042 5.755259 -2.625697
v 4.806582 4.025231 -1.515947
v 4.272530 16.761135 1.342422
v 7.297035 14.140600 2.325144
v 8.459163 9.632354 2.702742
v 8.222042 5.755259 2.625697
v 4.806582 4.025231 1.515947
v 2.694417 16.761135 3.514507
v 4.563664 14.140600 6.087306
v 5.281898 9.632354 7.075870
v 5.135350 5.755259 6.874163
v 3.024480 4.025231 3.968800
v 0.140978 16.761135 4.344170
v 0.140978 14.140600 7.524323
v 0.140978 9.632354 8.746256
v 0.140978 5.755259 8.496933
v 0.140978 4.025231 4.905707
v 0.140978 17.925152 0.000000
v -2.412461 16.761135 3.514508
v -4.281708 14.140600 6.087306
v -4.999943 9.632354 7.075870
v -4.853394 5.755259 6.874163
v -2.742524 4.025231 3.968801
v -3.990574 16.761135 1.342423
v -7.015078 14.140600 2.325144
v -8.177207 9.632354 2.702743
v -7.940086 5.755259 2.625697
v -4.524627 4.025231 1.515947
v 0.140978 3.289891 0.000000
v -3.990574 16.761135 -1.342422
v -7.015078 14.140600 -2.325144
v -8.177207 9.632354 -2.702742
v -7.940086 5.755259 -2.625697
v -4.524627 4.025231 -1.515947
v -2.412461 16.761135 -3.514507
v -4.281708 14.140600 -6.087306
v -4.999943 9.632354 -7.075870
v -4.853394 5.755259 -6.874163
v -2.742524 4.025231 -3.968800
v 0.140978 16.761135 -4.344170
v 0.140978 14.140600 -7.524323
v 0.140978 9.632354 -8.746256
v 0.140978 5.755259 -8.496933
v 0.140978 4.025231 -4.905707
vt 0.700000 0.333333
vt 0.700000 0.500000
vt 0.600000 0.500000
vt 0.600000 0.333333
vt 0.700000 0.666667
vt 0.700000 0.833333
vt 0.600000 0.833333
vt 0.600000 0.666667
vt 0.700000 0.166667
vt 0.600000 0.166667
vt 0.650000 1.000000
vt 0.650000 0.000000
vt 0.500000 0.333333
vt 0.500000 0.166667
vt 0.500000 0.666667
vt 0.500000 0.500000
vt 0.550000 1.000000
vt 0.500000 0.833333
vt 0.550000 0.000000
vt 0.400000 0.333333
vt 0.400000 0.166667
vt 0.400000 0.666667
vt 0.400000 0.500000
vt 0.450000 1.000000
vt 0.400000 0.833333
vt 0.450000 0.000000
vt 0.300000 0.333333
vt 0.300000 0.166667
vt 0.300000 0.666667
vt 0.300000 0.500000
vt 0.350000 1.000000
vt 0.300000 0.833333
vt 0.350000 0.000000
vt 0.200000 0.666667
vt 0.200000 0.500000
vt 0.250000 1.000000
vt 0.200000 0.833333
vt 0.250000 0.000000
vt 0.200000 0.166667
vt 0.200000 0.333333
vt 0.150000 1.000000
vt 0.100000 0.833333
vt 0.150000 0.000000
vt 0.100000 0.166667
vt 0.100000 0.500000
vt 0.100000 0.333333
vt 0.100000 0.666667
vt 0.050000 0.000000
vt 0.000000 0.166667
vt 0.000000 0.500000
vt 0.000000 0.333333
vt 0.000000 0.833333
vt 0.000000 0.666667
vt 0.050000 1.000000
vt 0.950000 0.000000
vt 1.000000 0.166667
vt 0.900000 0.166667
vt 1.000000 0.333333
vt 1.000000 0.500000
vt 0.900000 0.500000
vt 0.900000 0.333333
vt 1.000000 0.666667
vt 1.000000 0.833333
vt 0.900000 0.833333
vt 0.900000 0.666667
vt 0.950000 1.000000
vt 0.850000 0.000000
vt 0.800000 0.166667
vt 0.800000 0.500000
vt 0.800000 0.333333
vt 0.800000 0.833333
vt 0.800000 0.666667
vt 0.850000 1.000000
vt 0.750000 1.000000
vt 0.750000 0.000000
vn 0.3084 -0.0610 -0.9493
vn 0.2024 0.7558 -0.6228
vn 0.1396 -0.8921 -0.4298
vn 0.2992 0.2496 -0.9210
vn 0.0838 0.9625 -0.2579
vn 0.0481 -0.9878 -0.1481
vn 0.3656 -0.8921 -0.2656
vn 0.7834 0.2496 -0.5692
vn 0.2194 0.9625 -0.1594
vn 0.1260 -0.9878 -0.0915
vn 0.8075 -0.0610 -0.5867
vn 0.5298 0.7558 -0.3849
vn 0.4519 -0.8921 0.0000
vn 0.9683 0.2496 0.0000
vn 0.2712 0.9625 0.0000
vn 0.1557 -0.9878 0.0000
vn 0.9981 -0.0610 0.0000
vn 0.6548 0.7558 0.0000
vn 0.3656 -0.8921 0.2656
vn 0.7834 0.2496 0.5692
vn 0.2194 0.9625 0.1594
vn 0.1260 -0.9878 0.0915
vn 0.8075 -0.0610 0.5867
vn 0.5298 0.7558 0.3849
vn 0.2992 0.2496 0.9210
vn 0.0838 0.9625 0.2579
vn 0.0481 -0.9878 0.1481
vn 0.3084 -0.0610 0.9493
vn 0.2024 0.7558 0.6228
vn 0.1396 -0.8921 0.4298
vn -0.0838 0.9625 0.2579
vn -0.0481 -0.9878 0.1481
vn -0.3084 -0.0610 0.9493
vn -0.2024 0.7558 0.6228
vn -0.1396 -0.8921 0.4298
vn -0.2992 0.2496 0.9210
vn -0.1260 -0.9878 0.0915
vn -0.8075 -0.0610 0.5867
vn -0.5298 0.7558 0.3849
vn -0.3656 -0.8921 0.2656
vn -0.7834 0.2496 0.5692
vn -0.2194 0.9625 0.1594
vn -0.1557 -0.9878 0.0000
vn -0.9981 -0.0610 0.0000
vn -0.6548 0.7558 0.0000
vn -0.4519 -0.8921 0.0000
vn -0.9683 0.2496 0.0000
vn -0.2712 0.9625 0.0000
vn -0.1260 -0.9878 -0.0915
vn -0.8075 -0.0610 -0.5867
vn -0.5298 0.7558 -0.3849
vn -0.3656 -0.8921 -0.2656
vn -0.7834 0.2496 -0.5692
vn -0.2194 0.9625 -0.1594
vn -0.3084 -0.0610 -0.9493
vn -0.2024 0.7558 -0.6228
vn -0.1396 -0.8921 -0.4298
vn -0.2992 0.2496 -0.9210
vn -0.0838 0.9625 -0.2579
vn -0.0481 -0.9878 -0.1481
usemtl Material.009
s off
f 51/1/1 50/2/1 3/3/1 4/4/1
f 49/5/2 48/6/2 1/7/2 2/8/2
f 52/9/3 51/1/3 4/4/3 5/10/3
f 50/2/4 49/5/4 2/8/4 3/3/4
f 48/6/5 26/11/5 1/7/5
f 37/12/6 52/9/6 5/10/6
f 5/10/7 4/4/7 9/13/7 10/14/7
f 3/3/8 2/8/8 7/15/8 8/16/8
f 1/7/9 26/17/9 6/18/9
f 37/19/10 5/10/10 10/14/10
f 4/4/11 3/3/11 8/16/11 9/13/11
f 2/8/12 1/7/12 6/18/12 7/15/12
f 10/14/13 9/13/13 14/20/13 15/21/13
f 8/16/14 7/15/14 12/22/14 13/23/14
f 6/18/15 26/24/15 11/25/15
f 37/26/16 10/14/16 15/21/16
f 9/13/17 8/16/17 13/23/17 14/20/17
f 7/15/18 6/18/18 11/25/18 12/22/18
f 15/21/19 14/20/19 19/27/19 20/28/19
f 13/23/20 12/22/20 17/29/20 18/30/20
f 11/25/21 26/31/21 16/32/21
f 37/33/22 15/21/22 20/28/22
f 14/20/23 13/23/23 18/30/23 19/27/23
f 12/22/24 11/25/24 16/32/24 17/29/24
f 18/30/25 17/29/25 22/34/25 23/35/25
f 16/32/26 26/36/26 21/37/26
f 37/38/27 20/28/27 25/39/27
f 19/27/28 18/30/28 23/35/28 24/40/28
f 17/29/29 16/32/29 21/37/29 22/34/29
f 20/28/30 19/27/30 24/40/30 25/39/30
f 21/37/31 26/41/31 27/42/31
f 37/43/32 25/39/32 31/44/32
f 24/40/33 23/35/33 29/45/33 30/46/33
f 22/34/34 21/37/34 27/42/34 28/47/34
f 25/39/35 24/40/35 30/46/35 31/44/35
f 23/35/36 22/34/36 28/47/36 29/45/36
f 37/48/37 31/44/37 36/49/37
f 30/46/38 29/45/38 34/50/38 35/51/38
f 28/47/39 27/42/39 32/52/39 33/53/39
f 31/44/40 30/46/40 35/51/40 36/49/40
f 29/45/41 28/47/41 33/53/41 34/50/41
f 27/42/42 26/54/42 32/52/42
f 37/55/43 36/56/43 42/57/43
f 35/58/44 34/59/44 40/60/44 41/61/44
f 33/62/45 32/63/45 38/64/45 39/65/45
f 36/56/46 35/58/46 41/61/46 42/57/46
f 34/59/47 33/62/47 39/65/47 40/60/47
f 32/63/48 26/66/48 38/64/48
f 37/67/49 42/57/49 47/68/49
f 41/61/50 40/60/50 45/69/50 46/70/50
f 39/65/51 38/64/51 43/71/51 44/72/51
f 42/57/52 41/61/52 46/70/52 47/68/52
f 40/60/53 39/65/53 44/72/53 45/69/53
f 38/64/54 26/73/54 43/71/54
f 46/70/55 45/69/55 50/2/55 51/1/55
f 44/72/56 43/71/56 48/6/56 49/5/56
f 47/68/57 46/70/57 51/1/57 52/9/57
f 45/69/58 44/72/58 49/5/58 50/2/58
f 43/71/59 26/74/59 48/6/59
f 37/75/60 47/68/60 52/9/60
o Cube_Cube.001
v -0.599523 -0.897159 0.714502
v -0.599523 0.897159 0.714502
v -0.599523 -0.897159 -0.714502
v -0.599523 0.897159 -0.714502
v 0.599523 -0.897159 0.714502
v 0.599523 0.897159 0.714502
v 0.599523 -0.897159 -0.714502
v 0.599523 0.897159 -0.714502
v 0.000000 -0.897159 -1.000000
v 0.000000 0.897159 -1.000000
v 0.000000 -0.897159 1.000000
v 0.000000 0.897159 1.000000
v -1.000000 -0.897159 0.000000
v -1.000000 0.897159 0.000000
v 1.000000 -0.897159 0.000000
v 1.000000 0.897159 0.000000
v -0.651675 16.594591 0.023539
v 0.000000 -0.897159 0.000000
v -0.971173 5.456201 -0.000000
v -0.621489 5.456201 -0.623882
v -0.098003 5.800739 -0.873170
v 0.425483 5.800739 -0.623882
v 0.775167 5.800739 -0.000000
v 0.425483 5.800739 0.623882
v -0.098003 5.800739 0.873170
v -0.621489 5.800739 0.623882
v -0.040758 13.757440 -0.293057
v -0.540343 16.594591 -0.175093
v -0.373675 16.594591 -0.254462
v -0.207008 16.594591 -0.175093
v -0.095675 16.594591 0.023539
v -0.207008 16.594591 0.222170
v -0.373675 16.594591 0.301539
v -0.540343 16.594591 0.222170
v -0.373121 16.830357 0.000000
v -0.301281 13.760025 -0.416940
v -0.014548 13.310145 -0.311654
v -0.290249 13.328052 -0.441701
v 1.446093 15.299161 -2.887088
v 1.350776 15.300107 -2.932413
v 1.455683 15.135509 -2.893892
v 1.354812 15.142059 -2.941472
v -0.566511 12.856160 0.351715
v -0.754655 12.857926 0.015952
v -0.571403 12.462995 0.375935
v -0.773943 12.463926 0.014531
v -0.582801 10.607066 -0.409913
v -0.228571 10.573219 -0.580128
v -0.589725 10.025908 -0.448207
v -0.205542 10.011396 -0.631813
v -0.612669 6.642560 0.580222
v -0.128435 6.660997 0.810066
v 0.146480 10.193120 0.446680
v 0.388953 10.218774 0.010439
v 0.468130 9.606376 0.008299
v 0.206060 9.545325 0.484521
v -3.934406 14.323431 1.221059
v -3.933135 14.492589 1.214763
v -3.987053 14.323672 1.127117
v -3.982040 14.493050 1.127486
v 3.527575 12.267115 1.472082
v 3.503356 12.567307 1.472737
v 3.429186 12.559460 1.606178
v 3.447412 12.248439 1.617753
v -2.035083 12.042926 -3.022040
v -2.033191 12.294653 -3.011573
v -1.936375 12.285402 -3.058096
v -1.930081 12.038960 -3.072222
v -1.930183 7.809834 5.225310
v -2.085330 7.809834 5.151428
v -1.939202 8.162981 5.206608
v -2.082716 8.157517 5.138488
v 0.796816 5.328571 -0.000000
v 0.444881 5.254202 -0.633982
v 0.856516 4.510465 -0.000000
v 0.494460 4.341252 -0.659797
v 5.283650 5.388581 -2.075719
v 5.267261 5.850370 -2.067184
v 5.383605 5.874956 -1.857601
v 5.403340 5.444520 -1.857601
v 0.254728 8.340244 -0.502721
v -0.172269 8.334047 -0.706491
v 0.309473 7.780516 -0.541566
v -0.147792 7.750227 -0.761424
v -0.978548 4.546250 -0.000000
v -0.616377 4.659724 -0.644968
v 1.433410 10.090556 -3.373580
v 1.323984 10.088968 -3.425800
v 1.447439 9.851132 -3.383535
v 1.330256 9.843370 -3.439878
v -5.435167 6.696465 -2.775162
v -5.315662 6.696465 -2.988373
v -5.313916 6.306524 -2.995579
v -5.437687 6.267745 -2.775162
vt 0.424460 -1.936325
vt 0.424460 -1.439433
vt 0.601975 -1.439433
vt 0.601975 -1.936325
vt 0.533449 -1.936325
vt 0.533449 -1.439433
vt 0.682398 -1.439433
vt 0.682398 -1.936325
vt 0.424460 -1.936325
vt 0.424460 -1.439433
vt 0.246945 -1.439433
vt 0.246945 -1.936325
vt 0.533449 -1.936325
vt 0.533449 -1.439433
vt 0.384500 -1.439433
vt 0.384500 -1.936325
vt 0.533449 0.484819
vt 0.781895 0.484819
vt 0.682398 0.307304
vt 0.533449 0.236373
vt 0.682398 -1.439433
vt 0.639158 -0.081507
vt 0.509100 -0.081507
vt 0.424460 -0.438817
vt 0.424460 -0.212263
vt 0.424460 -0.081507
vt 0.269459 -0.081507
vt 0.285003 0.484819
vt 0.384500 0.307304
vt 0.682398 -1.936325
vt 0.384500 -1.936325
vt 0.384500 -1.439433
vt 0.384500 0.662334
vt 0.533449 0.733265
vt 0.246945 -1.439433
vt 0.269459 -0.081507
vt 0.424460 -0.176919
vt 0.424460 -0.428907
vt 0.601975 -1.439433
vt 0.588384 -0.485677
vt 0.682398 0.662334
vt 0.601975 -1.936325
vt 0.246945 -1.936325
vt 0.280306 0.151614
vt 0.331060 1.763440
vt 0.420850 1.763698
vt 0.579461 -0.176919
vt 0.420497 1.872807
vt 0.418612 2.907584
vt 0.467961 2.907584
vt 0.526301 1.249486
vt 0.535815 1.088549
vt 0.422398 0.972370
vt 0.304083 0.955463
vt 0.509100 -0.081507
vt 0.379042 -0.176919
vt 0.386934 1.088549
vt 0.482383 1.084530
vt 0.490649 0.620030
vt 0.496730 0.458355
vt 0.380312 -0.397483
vt 0.584700 -0.397483
vt 0.379042 -0.081507
vt 0.639158 -0.081507
vt 0.643977 -0.232857
vt 0.656295 -0.485677
vt 0.440748 0.484819
vt 0.371543 0.478971
vt 0.399203 0.429622
vt 0.440611 0.409903
vt 0.509679 0.478971
vt 0.482019 0.429622
vt 0.482019 0.528320
vt 0.440611 0.548039
vt 0.399203 0.528320
vt 0.584643 0.955463
vt 0.569841 1.134854
vt 0.482019 2.907584
vt 0.440611 2.907584
vt 0.501540 0.156720
vt 0.501540 0.283561
vt 0.381233 0.340665
vt 0.016006 -0.791818
vt 0.051662 -0.808742
vt 0.610336 0.466743
vt 0.579461 -0.081507
vt 0.559010 0.466743
vt 0.549359 0.621746
vt 0.501889 1.998038
vt 0.497269 2.121905
vt 0.467961 2.907584
vt 0.418612 2.907584
vt 0.421866 1.141958
vt 0.895107 2.503527
vt 0.870046 2.505341
vt 0.869044 2.549108
vt 0.892725 2.548846
vt 0.523322 2.121905
vt 0.458597 2.122620
vt 0.440611 2.907584
vt 0.482019 2.907584
vt 0.529834 0.562248
vt 0.461338 0.594558
vt 0.870046 1.215616
vt 0.895107 1.203794
vt 1.143435 2.503527
vt 1.141745 2.548846
vt 0.534199 2.002996
vt 0.528047 2.122620
vt 1.153006 2.549108
vt 1.155257 2.505341
vt 0.458597 0.588406
vt 0.523322 0.557628
vt 0.892725 1.202104
vt 0.869044 1.213365
vt 0.144432 2.278708
vt 0.121093 2.278642
vt 0.122657 2.325486
vt 0.144341 2.325613
vt 0.337078 1.872318
vt 0.369262 2.907584
vt 0.392701 0.397437
vt 0.345958 0.480856
vt -0.455873 0.204700
vt -0.443723 0.183016
vt 0.476661 1.240113
vt 0.388654 1.249486
vt 0.399203 2.907584
vt 0.461338 2.002996
vt 0.482383 0.641790
vt 0.386934 0.596174
vt 0.027841 1.235632
vt 0.053928 1.248100
vt 0.381233 0.151614
vt 0.399203 2.907584
vt 0.392701 1.872318
vt 0.391486 1.763440
vt 0.313484 1.134854
vt 0.369262 2.907584
vt 0.584643 0.364442
vt 0.649754 0.482757
vt 1.409861 0.119086
vt 1.389944 0.082895
vt -0.443723 2.325486
vt -0.444038 2.278642
vt 0.341166 0.481209
vt 0.391486 0.391419
vt -0.444038 0.181452
vt -0.457119 0.204791
vt 0.345958 1.872807
vt 0.341166 1.763698
vt -0.457119 2.278708
vt -0.455873 2.325613
vt 0.022536 1.704024
vt 0.058727 1.709196
vt 0.058564 1.792327
vt 0.025412 1.790154
vt 0.649754 0.972370
vt 0.630082 1.141958
vt 1.403843 1.792327
vt 1.409861 1.709196
vt 1.389944 1.704024
vt 1.385416 1.790154
vt 0.630082 0.482225
vt 0.569841 0.373843
vt 1.385416 0.085771
vt 1.403843 0.118923
vt 0.053928 1.646014
vt 0.027841 1.647112
vt 0.028311 1.716822
vt 0.052364 1.714260
vt 0.568590 1.240113
vt 0.581431 1.084530
vt 1.187741 1.646014
vt 1.184231 1.714260
vt 0.388654 0.586660
vt 0.476661 0.628949
vt 0.052364 1.244590
vt 0.028311 1.233032
vt 1.172673 1.716822
vt 1.175273 1.647112
vt 0.015357 0.474862
vt 0.053902 0.474862
vt 0.051662 0.572657
vt 0.016006 0.571144
vt 0.379042 0.329818
vt 0.509100 0.267883
vt 0.053902 -0.813388
vt 0.015357 -0.795033
vt -0.855392 0.474862
vt -0.852177 0.571144
vt 0.207524 -0.081507
vt 0.223202 0.156720
vt -0.869101 0.572657
vt -0.873747 0.474862
vt 0.885973 -0.180153
vt 0.940164 -0.195644
vt 0.938043 -0.067763
vt 0.885973 -0.060955
vt 0.581970 -0.232857
vt 0.643977 0.642329
vt 0.731415 0.484819
vt 1.870983 0.946332
vt 1.842078 0.998403
vt 0.746247 0.484819
vt 0.656295 0.648743
vt 1.846150 1.000523
vt 1.875887 0.946332
vt 0.731415 -0.212263
vt 0.746247 -0.438817
vt 1.875887 -0.180153
vt 1.870983 -0.060955
vt 1.842078 -0.067763
vt 1.846150 -0.195644
vt 0.893059 1.040149
vt 0.863946 1.038000
vt 0.862387 1.106012
vt 0.889574 1.106452
vt 0.596735 0.621746
vt 0.529834 1.998038
vt 0.613633 0.458355
vt 0.599985 0.620030
vt 1.275586 1.106012
vt 1.279083 1.038000
vt 0.292165 0.484819
vt 0.379042 0.639820
vt -0.787206 1.227268
vt -0.816896 1.174297
vt 0.490649 0.660344
vt 0.596735 0.609718
vt 0.889574 1.322971
vt 0.862387 1.335945
vt 0.610336 0.619369
vt 0.496730 0.673992
vt 0.863946 1.339442
vt 0.893059 1.325444
vt 1.265085 1.040149
vt 1.262612 1.106452
vt 1.168699 0.058557
vt 1.113938 0.047818
vt 1.113938 0.166542
vt 1.166909 0.166542
vt 0.380312 0.645059
vt 0.290332 0.484819
vt -0.817522 1.174297
vt -0.786772 1.229059
vt 0.290332 -0.428907
vt 0.292165 -0.176919
vt -0.816896 0.166542
vt -0.817522 0.047818
vt -0.786772 0.058557
vt -0.787206 0.166542
vn -0.8723 0.0000 -0.4889
vn 0.4299 0.0000 -0.9029
vn 0.8723 0.0000 0.4889
vn -0.4299 0.0000 0.9029
vn 0.0000 -1.0000 0.0000
vn 0.4297 0.0319 0.9024
vn 0.8660 0.0397 0.4984
vn 0.4299 0.0000 0.9029
vn -0.4299 0.0000 -0.9029
vn -0.8725 0.0053 0.4887
vn 0.8721 0.0345 -0.4881
vn 0.8723 0.0000 -0.4889
vn -0.8723 0.0000 0.4889
vn -0.8722 0.0243 0.4885
vn -0.8716 0.0260 -0.4895
vn 0.8702 0.0691 0.4878
vn -0.4347 0.0391 -0.8997
vn -0.4308 0.0152 -0.9023
vn -0.8723 0.0051 -0.4889
vn -0.4299 0.0148 0.9028
vn 0.4198 0.0317 -0.9071
vn -0.4599 0.7596 0.4599
vn 0.4607 0.7587 0.4607
vn 0.4942 0.7152 -0.4942
vn -0.4934 0.7163 -0.4934
vn 0.4228 0.0594 0.9043
vn 0.0990 0.9534 -0.2850
vn 0.4291 0.0626 -0.9011
vn 0.8718 0.0721 -0.4845
vn 0.1796 -0.8486 -0.4976
vn 0.8596 0.0292 0.5101
vn -0.8386 0.0098 -0.5447
vn -0.1903 0.8880 0.4187
vn -0.8721 0.0247 0.4888
vn -0.8721 0.0230 0.4888
vn 0.3833 0.8994 -0.2101
vn -0.4413 0.0379 -0.8965
vn -0.2684 -0.8256 -0.4963
vn -0.4282 0.0356 0.9030
vn 0.8705 0.0652 0.4878
vn 0.5790 -0.7857 0.2179
vn 0.2697 0.0492 0.9617
vn -0.4244 -0.8743 0.2356
vn -0.3182 0.0167 -0.9479
vn 0.3959 0.0477 -0.9170
vn -0.3455 0.0203 0.9382
vn -0.5120 0.8259 -0.2360
vn -0.4296 0.0407 -0.9021
vn 0.8433 0.0739 -0.5323
vn 0.2792 0.8692 0.4082
vn -0.8782 -0.0187 0.4780
vn -0.4297 0.0368 0.9022
vn -0.1685 -0.9200 0.3538
vn -0.9522 -0.0054 -0.3054
vn 0.9294 0.0548 0.3650
vn 0.8716 0.0400 -0.4885
vn -0.1347 0.9900 -0.0414
vn 0.2441 -0.9631 0.1131
vn 0.3734 0.0238 0.9274
vn -0.2858 0.0102 -0.9582
vn 0.4308 0.0579 -0.9006
vn -0.8780 0.0073 -0.4786
vn 0.2005 0.9732 0.1124
vn -0.2223 0.8704 0.4394
vn 0.2882 -0.8252 -0.4858
vn 0.9123 0.0537 0.4059
vn -0.1931 -0.9421 -0.2742
vn -0.5272 0.0039 0.8497
vn 0.4544 0.0239 -0.8905
usemtl Material.001
s off
f 65/76/61 66/77/61 56/78/61 55/79/61
f 61/80/62 62/81/62 60/82/62 59/83/62
f 67/84/63 68/85/63 58/86/63 57/87/63
f 63/88/64 64/89/64 54/90/64 53/91/64
f 70/92/65 67/93/65 57/94/65 63/95/65
f 64/89/66 58/96/66 76/97/66 77/98/66
f 58/86/67 68/85/67 127/99/67 125/100/67 75/101/67 76/102/67
f 65/103/65 70/92/65 63/95/65 53/104/65
f 57/105/68 58/96/68 64/89/68 63/88/68
f 55/106/69 56/107/69 62/81/69 61/80/69
f 55/108/65 61/109/65 70/92/65 65/103/65
f 66/77/70 54/110/70 78/111/70 71/112/70 137/113/70
f 68/85/71 60/114/71 128/115/71 127/99/71
f 61/109/65 59/116/65 67/93/65 70/92/65
f 59/117/72 60/114/72 68/85/72 67/84/72
f 53/118/73 54/110/73 66/77/73 65/76/73
f 71/112/74 78/111/74 103/119/74 97/120/74 98/121/74
f 72/122/75 71/112/75 98/121/75 96/123/75 69/124/75 80/125/75 99/126/75 101/127/75
f 76/102/76 75/101/76 107/128/76 108/129/76
f 73/130/77 72/131/77 101/132/77 102/133/77 134/134/77 136/135/77
f 62/81/78 56/107/78 138/136/78 72/131/78 73/130/78
f 56/78/79 66/77/79 137/113/79 138/137/79
f 54/90/80 64/89/80 77/98/80 78/138/80
f 60/82/81 62/81/81 73/130/81 74/139/81 126/140/81 128/141/81
f 87/142/82 69/143/82 86/144/82 85/145/82
f 83/146/83 87/142/83 85/145/83 84/147/83
f 82/148/84 81/149/84 87/142/84 83/146/84
f 81/149/85 80/150/85 69/143/85 87/142/85
f 77/98/86 76/97/86 108/151/86 105/152/86 84/153/86 85/154/86 104/155/86
f 104/156/87 103/157/87 124/158/87 123/159/87
f 74/139/88 73/130/88 136/135/88 135/160/88
f 75/101/89 74/161/89 135/162/89 133/163/89 89/164/89 79/165/89 82/166/89 83/167/89 106/168/89 107/128/89
f 93/169/88 94/170/88 92/171/88 91/172/88
f 79/173/88 88/174/88 81/175/88 82/176/88
f 89/177/90 90/178/90 94/179/90 93/180/90
f 79/165/91 89/164/91 93/181/91 91/182/91
f 90/183/92 88/184/92 92/185/92 94/186/92
f 88/187/93 79/188/93 91/189/93 92/190/93
f 111/191/94 109/192/94 110/193/94 112/194/94
f 96/123/95 95/195/95 86/196/95 69/124/95
f 95/197/96 96/198/96 112/199/96 110/200/96
f 100/201/97 99/202/97 80/203/97 81/175/97 88/174/97 90/204/97
f 102/205/98 101/206/98 117/207/98 120/208/98
f 103/209/99 104/155/99 85/154/99 86/210/99 95/211/99 97/212/99
f 105/213/100 106/168/100 83/167/100 84/214/100
f 108/215/101 107/216/101 113/217/101 116/218/101
f 97/212/102 95/211/102 110/219/102 109/220/102
f 98/221/103 97/222/103 109/223/103 111/224/103
f 96/225/104 98/226/104 111/227/104 112/228/104
f 116/229/76 113/230/76 114/231/76 115/232/76
f 107/233/105 106/234/105 114/235/105 113/236/105
f 105/152/106 108/151/106 116/237/106 115/238/106
f 106/239/107 105/240/107 115/241/107 114/242/107
f 120/243/108 117/244/108 118/245/108 119/246/108
f 100/247/109 102/248/109 120/249/109 119/250/109
f 99/251/110 100/252/110 119/253/110 118/254/110
f 101/127/111 99/126/111 118/255/111 117/256/111
f 122/257/112 121/258/112 123/259/112 124/260/112
f 78/261/113 77/262/113 121/263/113 122/264/113
f 103/119/114 78/111/114 122/265/114 124/266/114
f 77/267/115 104/268/115 123/269/115 121/270/115
f 132/271/116 129/272/116 130/273/116 131/274/116
f 125/100/116 126/275/116 74/161/116 75/101/116
f 126/276/117 125/277/117 131/278/117 130/279/117
f 127/280/118 128/281/118 129/282/118 132/283/118
f 125/284/119 127/285/119 132/286/119 131/287/119
f 128/141/120 126/140/120 130/288/120 129/289/120
f 141/290/88 142/291/88 140/292/88 139/293/88
f 133/294/121 134/134/121 102/133/121 100/201/121 90/204/121 89/295/121
f 136/296/122 134/297/122 140/298/122 142/299/122
f 71/300/123 72/301/123 144/302/123 143/303/123
f 134/304/124 133/305/124 139/306/124 140/307/124
f 135/308/125 136/309/125 142/310/125 141/311/125
f 133/163/126 135/162/126 141/312/126 139/313/126
f 145/314/79 146/315/79 143/316/79 144/317/79
f 138/318/127 137/319/127 146/320/127 145/321/127
f 137/322/128 71/323/128 143/324/128 146/325/128
f 72/131/129 138/136/129 145/326/129 144/327/129
